HIERARCHY
ROOT hip
{
	OFFSET 0.000000 0.000000 0.000000 
	CHANNELS 6 Xposition Yposition Zposition Xrotation Zrotation Yrotation
	JOINT abdomen
	{
		OFFSET 0.000000 3.402643 0.000000 
		CHANNELS 3 Xrotation Zrotation Yrotation
		JOINT chest
		{
			OFFSET 0.000000 8.438565 -0.680529 
			CHANNELS 3 Xrotation Zrotation Yrotation
			JOINT neck
			{
				OFFSET 0.000000 10.207942 -0.272212 
				CHANNELS 3 Xrotation Zrotation Yrotation
				JOINT head
				{
					OFFSET 0.000000 3.130431 0.000000 
					CHANNELS 3 Xrotation Zrotation Yrotation
					End Site
					{
						OFFSET 0.000000 3.130435 0.000000 
					}
				}
			}
			JOINT lCollar
			{
				OFFSET 3.470700 6.669187 -0.816635 
				CHANNELS 3 Yrotation Zrotation Xrotation
				JOINT lShldr
				{
					OFFSET 3.198488 0.000000 0.000000 
					CHANNELS 3 Zrotation Yrotation Xrotation
					JOINT lForeArm
					{
						OFFSET 10.139888 0.000000 0.000000 
						CHANNELS 3 Yrotation Zrotation Xrotation
						JOINT lHand
						{
							OFFSET 8.370511 0.000000 0.000000 
							CHANNELS 3 Zrotation Yrotation Xrotation
							End Site
							{
								OFFSET 4.083176 0.000000 0.000000 
							}
						}
					}
				}
			}
			JOINT rCollar
			{
				OFFSET -3.470700 6.669187 -0.816635 
				CHANNELS 3 Yrotation Zrotation Xrotation
				JOINT rShldr
				{
					OFFSET -3.198488 0.000000 0.000000 
					CHANNELS 3 Zrotation Yrotation Xrotation
					JOINT rForeArm
					{
						OFFSET -10.139888 0.000000 0.000000 
						CHANNELS 3 Yrotation Zrotation Xrotation
						JOINT rHand
						{
							OFFSET -8.370511 0.000000 0.000000 
							CHANNELS 3 Zrotation Yrotation Xrotation
							End Site
							{
								OFFSET -4.083176 0.000000 0.000000 
							}
						}
					}
				}
			}
		}
	}
	JOINT lThigh
	{
		OFFSET 5.308129 -1.633274 1.361059 
		CHANNELS 3 Xrotation Zrotation Yrotation
		JOINT lShin
		{
			OFFSET -2.041588 -20.007561 0.000000 
			CHANNELS 3 Xrotation Zrotation Yrotation
			JOINT lFoot
			{
				OFFSET 0.000000 -19.190928 -1.224953 
				CHANNELS 3 Xrotation Yrotation Zrotation
				End Site
				{
					OFFSET 0.000000 -2.449906 4.627600 
				}
			}
		}
	}
	JOINT rThigh
	{
		OFFSET -5.308129 -1.633274 1.361059 
		CHANNELS 3 Xrotation Zrotation Yrotation
		JOINT rShin
		{
			OFFSET 2.041588 -20.007561 0.000000 
			CHANNELS 3 Xrotation Zrotation Yrotation
			JOINT rFoot
			{
				OFFSET 0.000000 -19.190928 -1.224953 
				CHANNELS 3 Xrotation Yrotation Zrotation
				End Site
				{
					OFFSET 0.000000 -2.449906 4.627600 
				}
			}
		}
	}
}
MOTION
Frames: 16
Frame Time: 0.033333
3.209044 44.852753 45.814564 -18.300808 0.092717 12.293554 43.230919 -0.626281 -9.413234 -20.839844 0.000000 0.000000 -10.760501 21.225103 3.803586 8.586096 -4.084739 0.307924 -4.754608 -0.109225 -0.002657 -62.902279 -9.302283 5.118958 -43.137714 -16.823748 36.305767 7.274420 -8.920270 26.161495 4.754608 0.109225 -0.002676 88.037361 9.779988 -4.203950 2.067384 0.110079 33.704506 1.944246 41.880589 55.290302 -1.074830 13.864042 9.035315 43.455181 -5.768305 -7.962249 2.229640 -11.772754 3.026186 0.331373 -17.439201 -16.766384 49.201805 11.586304 1.253886 6.527656 7.594370 3.889498 
3.241240 45.345207 46.765171 -17.929741 -0.139370 12.398611 43.166168 0.035521 -9.715468 -20.839844 0.000000 0.000000 -11.064875 21.267128 4.053769 8.586096 -4.084739 0.307924 -4.754608 -0.109225 -0.002657 -63.273808 -10.420302 5.435231 -43.407551 -16.741270 36.693420 7.629566 -9.594021 26.979902 4.754608 0.109225 -0.002676 87.977844 9.559648 -4.420394 2.055445 0.112332 33.958805 2.508949 41.622948 56.081821 0.692108 13.834569 9.111553 41.085335 -5.650529 -7.551213 3.770986 -11.310319 3.007450 -0.508670 -16.737057 -17.667332 40.042355 12.366971 -0.927236 6.902659 9.350554 5.012150 
3.218008 45.778023 47.711559 -17.685778 -0.288426 12.748219 43.150974 0.674106 -10.081531 -20.839844 0.000000 0.000000 -11.203734 21.368311 4.154712 8.586096 -4.084739 0.307924 -4.754608 -0.109225 -0.002657 -63.114849 -11.702420 5.921258 -43.891571 -17.110441 36.557610 7.250057 -9.410247 26.764887 4.754608 0.109225 -0.002676 88.040741 9.261129 -4.712539 2.040088 0.090410 34.007397 3.207208 41.575760 56.797863 2.499452 14.071012 9.460904 38.777569 -5.601071 -7.427464 5.229786 -11.360225 3.355047 0.056826 -15.337745 -18.975060 28.926500 12.511084 -3.786212 10.314161 12.459356 6.354794 
3.142538 46.133251 48.677475 -17.588079 -0.260655 13.363874 43.167736 1.238879 -10.481659 -20.839844 0.000000 0.000000 -11.199627 21.460760 4.040776 8.586096 -4.084739 0.307924 -4.754608 -0.109225 -0.002657 -62.410381 -13.249823 6.387600 -44.819660 -17.761017 36.091194 6.498753 -8.680170 26.159763 4.754608 0.109225 -0.002676 88.130325 8.905696 -5.073908 2.031485 0.085702 33.978115 3.334603 41.847294 57.283264 4.302917 14.328350 9.702717 36.647041 -5.463995 -7.599906 6.333604 -11.671382 2.951202 1.842757 -13.314866 -20.852060 17.142845 11.515040 -7.439147 16.509533 16.787403 7.716521 
3.021666 46.446789 49.676121 -17.617188 0.000000 14.248046 43.204689 1.739719 -10.917603 -20.839844 0.000000 0.000000 -11.097486 21.466543 3.719208 8.586096 -4.084739 0.307924 -4.754608 -0.109225 -0.002657 -61.612637 -15.106218 6.638300 -45.789955 -18.127363 35.695068 6.047908 -8.243039 26.024961 4.754608 0.109225 -0.002676 88.156166 8.485733 -5.472425 2.023387 0.080244 33.978130 3.104155 42.245529 57.633759 6.167336 14.476634 9.724989 34.589630 -5.166234 -7.943465 7.557351 -11.932508 1.857096 4.671887 -10.129601 -22.733093 5.037602 8.391963 -12.019668 24.725843 21.230951 7.886073 
2.841154 46.681667 50.724377 -17.657907 0.772362 15.379167 43.158390 1.751875 -11.647044 -20.839844 0.000000 0.000000 -10.998277 21.304354 3.260112 8.586096 -4.084739 0.307924 -4.754608 -0.109225 -0.002657 -60.731781 -17.281254 6.750257 -46.818745 -18.319893 35.070133 5.767865 -8.022015 25.789719 4.754608 0.109225 -0.002676 88.059296 8.035522 -5.899968 2.021349 0.073514 33.860760 3.393676 42.230484 57.922947 8.109301 14.407498 9.776055 32.690376 -5.033374 -8.340824 8.976896 -12.515718 1.050065 7.628195 -6.528669 -23.797054 -5.369876 3.355015 -16.071211 33.261921 24.237307 6.875402 
2.625272 46.803059 51.806942 -17.714344 1.823371 16.693388 43.032867 1.657972 -12.407711 -20.839844 0.000000 0.000000 -11.017150 20.962519 2.730898 8.586096 -4.084739 0.307924 -4.754608 -0.109225 -0.002657 -59.580212 -19.743153 6.771995 -48.079281 -18.563231 34.233982 5.618869 -7.759823 25.361076 4.754608 0.109225 -0.002676 87.827927 7.554285 -6.306772 2.020333 0.065270 33.801941 3.446069 42.136364 57.996891 9.968222 14.450698 10.085679 31.172314 -5.062446 -8.876630 10.199591 -13.518277 0.729334 7.936091 -7.537951 -24.992266 -4.904325 4.162488 -16.796507 36.024502 23.821486 5.047044 
2.394605 46.827877 52.896900 -17.747828 2.883514 18.091427 42.845905 1.753926 -12.935009 -20.839844 0.000000 0.000000 -11.220366 20.469578 2.201880 8.586096 -4.084739 0.307924 -4.754608 -0.109225 -0.002657 -57.996552 -22.597486 6.729607 -49.526653 -18.950232 33.076004 5.639251 -7.399683 24.417854 4.754608 0.109225 -0.002676 87.545593 7.009961 -6.682107 2.027606 0.071962 33.753128 2.946306 42.329548 57.697758 11.529482 14.547628 10.279913 30.139511 -4.993818 -9.507658 11.144706 -14.448058 0.529821 9.084278 -8.326724 -25.336281 -4.627244 4.935981 -17.176718 37.467850 22.522541 4.667375 
2.154446 46.796726 53.969437 -17.660227 3.936809 19.460964 42.548981 1.946665 -13.289738 -20.839844 0.000000 0.000000 -11.594305 19.873487 1.724458 8.586096 -4.084739 0.307924 -4.754608 -0.109225 -0.002657 -56.156616 -25.997541 6.493151 -50.744991 -19.108088 31.762190 5.728460 -7.258454 23.293474 4.754608 0.109225 -0.002676 87.325256 6.520218 -6.949088 2.038543 0.081036 33.440510 2.977638 42.365101 57.094608 12.691399 14.567866 10.168175 29.462393 -4.779007 -10.193111 12.092136 -15.018621 0.160397 10.643118 -8.691240 -25.376469 -4.461984 5.404948 -17.303904 37.081303 21.500244 4.365387 
1.919575 46.767170 54.999744 -17.455967 4.808116 20.687859 42.175644 2.369147 -13.382302 -20.839844 0.000000 0.000000 -12.054614 19.266954 1.396100 8.586096 -4.084739 0.307924 -4.754608 -0.109225 -0.002657 -54.041363 -29.601101 5.694265 -51.979618 -18.772379 30.820187 6.034200 -6.988729 23.186251 4.754608 0.109225 -0.002676 87.008392 6.287748 -7.043722 2.045052 0.088904 33.342884 2.945255 42.521687 56.630844 13.450092 14.468065 9.619654 29.017731 -4.339348 -10.673933 13.113876 -14.868767 -0.744662 12.166364 -8.368771 -25.379223 -4.506104 5.255880 -17.622431 34.830509 20.985353 3.730213 
1.699463 46.729160 55.970413 -17.178032 5.394258 21.606907 41.788673 3.039001 -13.221712 -20.839844 0.000000 0.000000 -12.497877 18.743391 1.303822 8.586096 -4.084739 0.307924 -4.754608 -0.109225 -0.002657 -51.138870 -33.346607 4.205386 -53.377148 -18.177879 29.782309 6.462954 -6.536617 23.268234 4.754608 0.109225 -0.002676 86.498260 6.500701 -6.897362 2.049322 0.092206 33.596920 2.684792 42.712502 56.419369 13.735274 14.390903 8.844070 29.059992 -3.744386 -11.118206 13.991402 -14.235144 -1.591704 12.572278 -9.041541 -26.606333 -1.690587 6.743551 -17.713667 30.354179 21.392456 2.268876 
1.462471 46.592464 56.882492 -16.680151 6.129426 22.044525 41.401611 3.086175 -13.284466 -20.839844 0.000000 0.000000 -12.860600 18.375896 1.533832 8.586096 -4.084739 0.307924 -4.754608 -0.109225 -0.002657 -47.239754 -37.275261 1.967064 -54.555111 -17.436792 28.429689 7.028850 -6.384434 22.788803 4.754608 0.109225 -0.002676 85.850761 7.360098 -6.415070 2.047681 0.096617 33.978096 2.572110 42.495960 56.256317 13.577102 13.960041 7.834454 29.961826 -3.197805 -11.564977 13.757677 -13.675467 -1.620692 10.706845 -12.857789 -28.975739 7.625914 10.984431 -15.268723 23.199272 21.733149 0.798881 
1.245522 46.407726 57.696400 -16.175049 6.614697 22.032026 41.115463 3.227456 -13.281534 -20.839844 0.000000 0.000000 -13.152193 18.208450 2.120094 8.586096 -4.084739 0.307924 -4.754608 -0.109225 -0.002657 -42.496223 -41.183781 -1.148790 -55.581169 -16.414370 26.827421 7.534635 -6.329715 22.032976 4.754608 0.109225 -0.002676 85.114578 8.938293 -5.578341 2.042055 0.109235 34.584274 2.262476 42.159904 56.265049 13.241949 13.525460 6.775177 31.367815 -2.591744 -11.892597 11.911071 -12.875006 -1.631212 9.898089 -14.977430 -29.757010 12.576256 13.161866 -13.341241 19.218306 21.417118 -0.113090 
1.048653 46.211376 58.409485 -15.671271 6.847657 21.727636 40.920017 3.481905 -13.343515 -20.839844 0.000000 0.000000 -13.407119 18.266340 2.906599 8.586096 -4.084739 0.307924 -4.754608 -0.109225 -0.002657 -36.814003 -44.953342 -5.218959 -56.252991 -15.156184 25.258404 8.004731 -6.325312 21.302370 4.754608 0.109225 -0.002676 84.352509 11.159789 -4.508160 2.031512 0.112226 35.336880 1.463883 42.109913 56.345200 12.941499 13.040998 5.784803 32.772305 -2.008109 -11.745111 9.324091 -11.572765 -2.016174 9.155087 -16.256824 -29.913544 16.068272 14.519268 -11.871884 16.393036 20.941288 -1.494224 
0.870255 46.051441 59.018066 -15.151479 6.902384 21.291014 40.754040 3.825615 -13.513142 -20.839844 0.000000 0.000000 -13.617909 18.494196 3.712700 8.586096 -4.084739 0.307924 -4.754608 -0.109225 -0.002657 -30.070370 -48.234642 -10.175428 -56.429821 -13.929881 23.910891 8.655050 -6.267951 20.526981 4.754608 0.109225 -0.002676 83.750778 13.791015 -3.312041 2.035259 0.116721 35.542107 0.537214 42.602711 55.803265 12.856266 12.603653 5.142245 33.741352 -1.666426 -11.192019 7.074035 -10.157792 -2.413158 8.376450 -16.902723 -29.692919 18.538946 15.291855 -10.812981 14.093969 20.428978 -2.696264 
0.711899 45.966465 59.522663 -14.607746 6.825051 20.805086 40.549408 4.192203 -13.797513 -20.839844 0.000000 0.000000 -13.756793 18.770796 4.445853 8.586096 -4.084739 0.307924 -4.754608 -0.109225 -0.002657 -22.967764 -50.836548 -15.647670 -55.842655 -12.646274 23.041075 9.122506 -6.199986 20.155676 4.754608 0.109225 -0.002676 83.615639 8.605224 -2.802677 18.050419 0.801377 36.899036 2.841726 36.945347 52.260853 12.952968 12.241515 4.811108 34.025269 -1.568619 -10.384822 5.444890 -8.865656 -2.637332 7.779840 -17.008917 -29.382565 19.849672 15.655861 -10.280005 12.141418 20.172544 -3.337734 
